# xmcd
#
# Track frame offsets: 
#        150
#        15447
#        30605
#        49050
#        68543
#        90210
#        107624
#        127644
#        143821
#        160446
#        178557
#        197049
#        216874
#        236844
#        255019
#        273922
#        291538
#        312368
#
# Disc length: 4368 seconds
#
# Revision: 0
# Processed by: cddbd v1.5PL3 Copyright (c) Steve Scherf et al.
# Submitted via: ExactAudioCopy v0.95a3
#
DISCID=ee110e12
DTITLE=Various Artist - 一人一首成名曲_欧美女人篇
DYEAR=2002
DGENRE=Other
TTITLE0=Shania Twain-You've Got A Way
TTITLE1=Emilia-Big Big World
TTITLE2=Sarah Brightman-Time To Say Goodbye
TTITLE3=The Cranberries-Dream
TTITLE4=Celine Dion-The Power Of Love
TTITLE5=Barbra Streisand-Woman In Love
TTITLE6=Enya-Oninoco Flow
TTITLE7=Mariah Carey-Without You
TTITLE8=Vanessa Williams-Save The Best For Last
TTITLE9=Sarah Mclachlan-Angle
TTITLE10=Lauren Cristy-The Color Of The Night
TTITLE11=Trisha Yearwood-How Do I Live
TTITLE12=Whitney Houston-I Will Always Love You
TTITLE13=Cher-Believe
TTITLE14=Diana Ross-When You Tell Me That You Love Me
TTITLE15=Samatha Sang-Emotion
TTITLE16=Joy Enriquez-How Can I Not Love You
TTITLE17=Minnie Riperton-Loving You
EXTD=
EXTT0=
EXTT1=
EXTT2=
EXTT3=
EXTT4=
EXTT5=
EXTT6=
EXTT7=
EXTT8=
EXTT9=
EXTT10=
EXTT11=
EXTT12=
EXTT13=
EXTT14=
EXTT15=
EXTT16=
EXTT17=
PLAYORDER=
